<?xml version="1.0" encoding="UTF-8" standalone="no"?>
<svg
   xmlns:dc="http://purl.org/dc/elements/1.1/"
   xmlns:cc="http://creativecommons.org/ns#"
   xmlns:rdf="http://www.w3.org/1999/02/22-rdf-syntax-ns#"
   xmlns:svg="http://www.w3.org/2000/svg"
   xmlns="http://www.w3.org/2000/svg"
   id="svg8"
   version="1.1"
   viewBox="0 0 148 105"
   height="105mm"
   width="148mm">
  <defs
     id="defs2" />
  <metadata
     id="metadata5">
    <rdf:RDF>
      <cc:Work
         rdf:about="">
        <dc:format>image/svg+xml</dc:format>
        <dc:type
           rdf:resource="http://purl.org/dc/dcmitype/StillImage" />
        <dc:title></dc:title>
      </cc:Work>
    </rdf:RDF>
  </metadata>
  <g
     id="layer1">
    <g
       transform="matrix(2.7224116,0,0,2.7224116,-202.44673,-241.38169)"
       id="g929">
      <path
         id="path935"
         d="M 96.58882,119.78655 C 72.172788,116.44506 74.244874,96.33104 99.9886,95.919307 c 26.48406,-0.423573 32.22914,18.191253 9.26763,23.432393 -2.61048,0.59587 -9.931656,0.80926 -12.66741,0.43485 z"
         style="fill:#f8d526;stroke-width:0.264583" />
      <path
         id="path933"
         d="m 96.586585,115.36976 c -2.129065,-0.9975 -2.065423,-4.52636 0.225716,-12.51509 0.687488,-2.39714 4.099799,-4.003575 7.125729,-3.35463 2.58654,0.55471 3.39403,1.78175 2.89901,4.40523 l -0.31239,1.65562 h -2.10773 -2.10773 l 0.17306,-0.8599 c 0.0952,-0.47294 0.22893,-1.05941 0.29721,-1.30328 0.1485,-0.53041 -0.57122,-0.99408 -1.26245,-0.81332 -0.27197,0.0711 -0.55426,0.38298 -0.62733,0.69301 -2.079672,8.82454 -2.13566,9.62649 -0.64485,9.23664 0.48431,-0.12665 0.64029,-0.49048 1.19438,-2.78596 0.17334,-0.71809 0.20317,-0.72761 2.28145,-0.72761 1.88264,0 2.09093,0.0491 1.9654,0.46302 -0.0772,0.25467 -0.27016,1.0545 -0.42874,1.77742 -0.82551,3.76329 -5.10324,5.80027 -8.670735,4.12885 z m 10.969625,-0.031 c -1.91414,-1.04166 -1.96829,-1.63005 -0.70126,-7.61942 1.20189,-5.68145 1.20373,-5.68684 2.28653,-6.69013 3.86198,-3.578405 9.82074,-1.49786 8.79807,3.0719 l -0.32669,1.45983 h -2.09559 -2.09558 l 0.17306,-0.8599 c 0.0952,-0.47294 0.22943,-1.061 0.29832,-1.3068 0.1838,-0.65579 -0.7509,-1.08615 -1.37224,-0.63181 -0.73866,0.54012 -2.58656,9.15679 -2.05526,9.58355 0.20731,0.1665 0.6086,0.24215 0.89176,0.16811 0.48431,-0.12665 0.64029,-0.49048 1.19438,-2.78596 0.17323,-0.71763 0.20433,-0.72761 2.26866,-0.72761 h 2.09303 l -0.16043,0.72761 c -0.4103,1.86087 -0.92624,3.42471 -1.30806,3.96474 -1.35052,1.91013 -5.72573,2.82297 -7.8887,1.64589 z m -21.344563,0.0428 c 0,-0.14069 0.526393,-2.73625 1.190625,-5.76338 1.346043,-6.13436 1.346043,-6.13436 1.346043,-6.13436 0,0 -2.796056,-0.12887 -2.789706,-0.238 0.0063,-0.10914 0.159961,-0.91282 0.341358,-1.78594 l 0.329812,-1.587502 4.950309,-0.07198 c 3.871934,-0.0563 4.947868,0.0013 4.939099,0.264582 -0.0062,0.18511 -0.163507,0.99141 -0.349649,1.79177 l -0.338439,1.45521 -1.46661,0.0783 -1.466612,0.0783 -0.857715,4.02276 c -0.471745,2.21252 -1.057727,4.91573 -1.302182,6.00714 l -0.444464,1.98438 -2.040934,0.0773 c -1.190751,0.0451 -2.040935,-0.0293 -2.040935,-0.17851 z"
         style="fill:#db2225;stroke-width:0.264583" />
      <path
         id="path931"
         d="m 97.275417,120.62101 c -15.37275,-1.62818 -23.189867,-11.90359 -14.861474,-19.53505 10.375445,-9.507206 35.724307,-7.352869 40.844997,3.47132 4.34588,9.18639 -9.58734,17.80029 -25.983523,16.06373 z m 9.838313,-1.16192 c 15.35431,-2.35908 21.13684,-12.54273 10.91215,-19.21747 -12.52221,-8.174597 -36.60079,-3.78857 -38.059607,6.93273 -1.085282,7.97609 13.178897,14.43089 27.147457,12.28474 z"
         style="fill:#2e2925;stroke-width:0.264583" />
    </g>
  </g>
</svg>
